name D:\PhD\Datasets\SharingData_IBEC_VALDUCE\RM2_Healthy_0001.mot
datacolumns 46
datarows 4
range 5.01000000 5.04000000
endheader
                time	         pelvis_tilt	     pelvis_rotation	           pelvis_tx	           pelvis_ty	           pelvis_tz	       hip_flexion_r	     hip_adduction_r	      hip_rotation_r	        knee_angle_r	       ankle_angle_r	    subtalar_angle_r	         mtp_angle_r	       hip_flexion_l	     hip_adduction_l	      hip_rotation_l	        knee_angle_l	       ankle_angle_l	    subtalar_angle_l	         mtp_angle_l	    lumbar_extension	      lumbar_bending	     lumbar_rotation	          arm_flex_r	           arm_add_r	           arm_rot_r	        elbow_flex_r	           pro_sup_r	        wrist_flex_r	         wrist_dev_r	          arm_flex_l	           arm_add_l	           arm_rot_l	        elbow_flex_l	           pro_sup_l	        wrist_flex_l	         wrist_dev_l	          end_eff_tx	          end_eff_ty	          end_eff_tz	             goal_tx	             goal_ty	             goal_tz	            elbow_tx	            elbow_ty	            elbow_tz	
          5.01000000	          0.00000000	          0.00000000	        417.54917034	        458.77687851	        323.11748742	          0.00000000	          0.00000000	          0.00000000	          0.00000000	          0.00000000	          0.00000000	          0.00000000	          0.00000000	          0.00000000	          0.00000000	          0.00000000	          0.00000000	          0.00000000	          0.00000000	        -13.04981804	         -2.41942048	         12.87811089	         96.77766418	        -33.06587601	         47.11863708	         21.09266663	         64.47314453	          0.00000000	          0.00000000	          0.00000000	          0.00000000	          0.00000000	          0.00000000	          0.00000000	          0.00000000	          0.00000000	       1117.48243977	        671.31015822	        516.96981665	       1102.95743255	        673.23334417	        512.76791174	        731.13468501	        563.48209484	        587.47058162	
          5.02000000	          0.00000000	          0.00000000	        417.58999328	        458.76225267	        323.09957337	          0.00000000	          0.00000000	          0.00000000	          0.00000000	          0.00000000	          0.00000000	          0.00000000	          0.00000000	          0.00000000	          0.00000000	          0.00000000	          0.00000000	          0.00000000	          0.00000000	        -13.06067562	         -2.40155554	         12.87520504	         96.77400970	        -33.04906082	         47.13186646	         21.08688736	         64.44013214	          0.00000000	          0.00000000	          0.00000000	          0.00000000	          0.00000000	          0.00000000	          0.00000000	          0.00000000	          0.00000000	       1117.52552430	        671.28506297	        516.99970316	       1103.03485307	        673.24420932	        512.78404461	        731.19094437	        563.45713794	        587.51423879	
          5.03000000	          0.00000000	          0.00000000	        417.59070804	        458.73373644	        323.09336451	          0.00000000	          0.00000000	          0.00000000	          0.00000000	          0.00000000	          0.00000000	          0.00000000	          0.00000000	          0.00000000	          0.00000000	          0.00000000	          0.00000000	          0.00000000	          0.00000000	        -13.06183052	         -2.39616442	         12.87831783	         96.76994324	        -33.05985260	         47.13875580	         21.09424400	         64.44068146	          0.00000000	          0.00000000	          0.00000000	          0.00000000	          0.00000000	          0.00000000	          0.00000000	          0.00000000	          0.00000000	       1117.56055606	        671.27246164	        517.00663219	       1103.09400615	        673.24441118	        512.76341254	        731.22071681	        563.42242170	        587.49827115	
          5.04000000	          0.00000000	          0.00000000	        417.60846533	        458.71679293	        323.09112500	          0.00000000	          0.00000000	          0.00000000	          0.00000000	          0.00000000	          0.00000000	          0.00000000	          0.00000000	          0.00000000	          0.00000000	          0.00000000	          0.00000000	          0.00000000	          0.00000000	        -13.10529613	         -2.38346887	         12.87337208	         96.83397675	        -33.06745911	         47.18344879	         21.11167717	         64.39952087	          0.00000000	          0.00000000	          0.00000000	          0.00000000	          0.00000000	          0.00000000	          0.00000000	          0.00000000	          0.00000000	       1117.57815416	        671.22248609	        516.93970006	       1103.15902751	        673.23098054	        512.75953661	        731.24017994	        563.37139847	        587.55882154	
